<svg xmlns="http://www.w3.org/2000/svg" xmlns:xlink="http://www.w3.org/1999/xlink" width="171.721" height="171.721" viewBox="0 0 171.721 171.721">
  <defs>
    <filter id="Контур_390" x="0" y="0" width="171.721" height="171.721" filterUnits="userSpaceOnUse">
      <feOffset dx="3" dy="3" input="SourceAlpha"/>
      <feGaussianBlur stdDeviation="6.5" result="blur"/>
      <feFlood flood-opacity="0.831"/>
      <feComposite operator="in" in2="blur"/>
      <feComposite in="SourceGraphic"/>
    </filter>
  </defs>
  <g id="motion_photos_on-black-18dp" transform="translate(3.228 2.605)">
    <rect id="Прямоугольник_678" data-name="Прямоугольник 678" width="160" height="160" transform="translate(0 -0.112)" fill="none"/>
    <g transform="matrix(1, 0, 0, 1, -3.23, -2.6)" filter="url(#Контур_390)">
      <path id="Контур_390-2" data-name="Контур 390" d="M55.088,98.223V38.5L94.9,68.36ZM134.721,68.36A66.361,66.361,0,1,1,5.982,45.931l12.476,4.513A51.662,51.662,0,0,0,15.272,68.36,53.088,53.088,0,1,0,68.36,15.272a51.289,51.289,0,0,0-17.851,3.185L46,5.915A67.694,67.694,0,0,1,68.36,2,66.385,66.385,0,0,1,134.721,68.36ZM25.226,15.272a9.954,9.954,0,1,0,9.954,9.954A9.941,9.941,0,0,0,25.226,15.272Z" transform="translate(14.5 14.5)" fill="#fff"/>
    </g>
  </g>
</svg>
