<svg xmlns="http://www.w3.org/2000/svg" fill-rule="evenodd" clip-rule="evenodd" image-rendering="optimizeQuality" shape-rendering="geometricPrecision" text-rendering="geometricPrecision" viewBox="0 0 20000 23000" xml:space="preserve"><path fill="#752e85" fill-rule="nonzero" d="M9950 1295c2525-20 7156 8969 8099 12455 1202 4447 116 8545-8078 8545-8195 0-9290-4238-7926-8637 160-517 4264-12335 7905-12363z"/><path fill="#fefefe" fill-rule="nonzero" d="M12625 17780v-2284c0-68 30-126 88-173 59-53 134-80 226-80h940c85 0 157 27 215 80 66 47 99 105 99 173 0-68 28-126 87-173 58-53 134-80 226-80h941c84 0 156 27 214 80 65 47 99 105 99 173v2284h-627v-1902c0-33-17-61-49-88-33-26-68-40-108-40h-313c-47 0-85 14-119 40-25 27-38 55-38 87v1903h-627v-1902c0-33-17-61-49-88-33-26-68-40-109-40h-312c-47 0-85 14-119 40-25 27-38 55-38 87v1903h-627z"/><path fill="#fefefe" fill-rule="nonzero" d="M10087 17780c-74 0-135-24-182-72-48-47-72-108-72-182v-2030c0-68 24-126 72-173 47-53 108-80 182-80h2030c68 0 126 27 173 80 53 47 80 105 80 173v2030c0 74-27 135-80 182-47 48-105 72-173 72h-2030zm1649-507c32 0 60-11 87-32 26-27 40-58 40-96v-1268c0-32-14-60-40-87-27-26-55-40-87-40h-1268c-38 0-69 14-96 40-21 27-32 55-32 87v1268c0 38 11 69 32 96 27 21 58 32 96 32h1268z"/><path fill="#fefefe" fill-rule="nonzero" d="M7296 17780a245 245 0 0 1-255-254v-2030c0-68 25-126 72-173 47-53 108-80 183-80h2030c67 0 125 27 173 80 53 47 80 105 80 173v2030c0 74-27 135-80 182-48 48-106 72-173 72H7296zm1648-507c32 0 61-11 88-32 26-27 39-58 39-96v-1268c0-32-13-60-39-87-27-26-56-40-88-40H7676c-38 0-69 14-96 40-20 27-31 55-31 87v1268c0 38 11 69 31 96 27 21 58 32 96 32h1268z"/><path fill="#fefefe" fill-rule="nonzero" d="M4250 17780v-2537h2284c68 0 126 27 173 80 53 47 80 105 80 173v762c0 74-27 135-80 182-47 48-105 71-173 71 68 0 126 27 173 80 53 47 80 105 80 174v761c0 74-27 135-80 182-47 48-105 72-173 72H4250zm1902-1522c33 0 61-11 88-31 26-27 40-59 40-96v-253c0-33-14-61-40-88-27-26-55-40-88-40H4757v508h1395zm0 1015c33 0 61-11 88-32 26-27 40-58 40-96v-253c0-32-14-61-40-88-27-25-55-39-88-39H4757v508h1395z"/><path fill="#fefefe" d="M10851 13023h1379v733h-1379z"/><path fill="#fefefe" d="M10851 11948h1379v733h-1379z"/><path fill="#2b2a29" d="M10851 10873h1379v733h-1379z"/><path fill="#fefefe" d="M12698 13023h1379v733h-1379z"/><path fill="#fefefe" d="M12698 11948h1379v733h-1379z"/><path fill="#fefefe" d="M12708 10873h1379v733h-1379z"/><path fill="#fefefe" d="M12708 9782h1379v732h-1379z"/><path fill="#2b2a29" d="M12708 8707h1379v732h-1379z"/><path fill="#fefefe" d="M5325 13023h1379v733H5325z"/><path fill="#2b2a29" d="M5325 11948h1379v733H5325z"/><path fill="#fefefe" d="M7156 13023h1378v733H7156z"/><path fill="#fefefe" d="M7156 11948h1378v733H7156z"/><path fill="#fefefe" d="M9003 13023h1379v733H9003z"/><path fill="#fefefe" d="M9003 11948h1379v733H9003z"/><path fill="#fefefe" d="M9003 10873h1379v733H9003z"/><path fill="#fefefe" d="M7150 10851h1379v732H7150z"/><path fill="#2b2a29" d="M7150 9776h1379v732H7150z"/><path fill="#fefefe" d="M9006 9778h1379v732H9006z"/><path fill="#fefefe" d="M9006 8703h1379v732H9006z"/><path fill="#fefefe" d="M9006 7611h1379v732H9006z"/><path fill="#2b2a29" d="M9006 6536h1379v733H9006z"/></svg>