<svg xmlns="http://www.w3.org/2000/svg" fill-rule="evenodd" clip-rule="evenodd" image-rendering="optimizeQuality" shape-rendering="geometricPrecision" text-rendering="geometricPrecision" viewBox="0 0 70000 23000" xml:space="preserve"><path fill="#752e85" fill-rule="nonzero" d="M9275 870c2526-20 7157 8969 8099 12455 1203 4447 116 8545-8078 8545S7 17632 1371 13233C1531 12717 5634 899 9275 870z"/><path fill="#fefefe" fill-rule="nonzero" d="M11950 17355v-2284c0-68 30-126 89-173 58-53 133-80 225-80h940c85 0 157 27 216 80 65 47 99 105 99 173 0-68 28-126 87-173 58-53 133-80 225-80h942c83 0 155 27 214 80 65 47 98 105 98 173v2284h-627v-1902c0-33-16-61-48-88-34-26-69-40-109-40h-313c-46 0-85 14-118 40-25 27-39 55-39 88v1902h-627v-1902c0-33-17-61-48-88-34-26-69-40-109-40h-313c-47 0-85 14-118 40-25 27-39 55-39 88v1902h-627z"/><path fill="#fefefe" fill-rule="nonzero" d="M9413 17355c-75 0-135-24-183-71-47-48-71-109-71-183v-2030c0-68 24-126 71-173 48-53 108-80 183-80h2030c67 0 125 27 173 80 53 47 80 105 80 173v2030c0 74-27 135-80 183-48 47-106 71-173 71H9413zm1648-507c33 0 61-11 88-31 26-27 39-59 39-96v-1268c0-33-13-61-39-88-27-26-55-40-88-40H9793c-38 0-69 14-96 40-20 27-31 55-31 88v1268c0 37 11 69 31 96 27 20 58 31 96 31h1268z"/><path fill="#fefefe" fill-rule="nonzero" d="M6621 17355c-74 0-135-24-182-71-48-48-72-109-72-183v-2030c0-68 24-126 72-173 47-53 108-80 182-80h2030c68 0 126 27 173 80 53 47 80 105 80 173v2030c0 74-27 135-80 183-47 47-105 71-173 71H6621zm1648-507c33 0 61-11 88-31 26-27 40-59 40-96v-1268c0-33-14-61-40-88-27-26-55-40-88-40H7002c-38 0-69 14-97 40-20 27-31 55-31 88v1268c0 37 11 69 32 96 27 20 58 31 96 31h1267z"/><path fill="#fefefe" fill-rule="nonzero" d="M3575 17355v-2537h2285c67 0 125 27 173 80 52 47 80 105 80 173v762c0 74-28 135-80 183-48 47-106 70-173 70 67 0 125 27 173 80 52 47 80 105 80 174v761c0 74-28 135-80 183-48 47-106 71-173 71H3575zm1903-1522c32 0 61-11 88-31 26-27 39-58 39-96v-253c0-33-13-61-39-88-27-26-56-40-88-40H4083v508h1395zm0 1015c32 0 61-11 88-31 26-27 39-59 39-96v-253c0-33-13-61-39-88-27-26-56-40-88-40H4083v508h1395z"/><path fill="#fefefe" d="M10176 12598h1379v733h-1379z"/><path fill="#fefefe" d="M10176 11523h1379v733h-1379z"/><path fill="#2b2a29" d="M10176 10448h1379v733h-1379z"/><path fill="#fefefe" d="M12024 12598h1379v733h-1379z"/><path fill="#fefefe" d="M12024 11523h1379v733h-1379z"/><path fill="#fefefe" d="M12033 10448h1379v733h-1379z"/><path fill="#fefefe" d="M12033 9357h1379v732h-1379z"/><path fill="#2b2a29" d="M12033 8282h1379v732h-1379z"/><path fill="#fefefe" d="M4650 12598h1379v733H4650z"/><path fill="#2b2a29" d="M4650 11523h1379v733H4650z"/><path fill="#fefefe" d="M6481 12598h1379v733H6481z"/><path fill="#fefefe" d="M6481 11523h1379v733H6481z"/><path fill="#fefefe" d="M8329 12598h1379v733H8329z"/><path fill="#fefefe" d="M8329 11523h1379v733H8329z"/><path fill="#fefefe" d="M8329 10448h1379v733H8329z"/><path fill="#fefefe" d="M6476 10426h1379v732H6476z"/><path fill="#2b2a29" d="M6476 9351h1379v732H6476z"/><path fill="#fefefe" d="M8331 9353h1379v732H8331z"/><path fill="#fefefe" d="M8331 8278h1379v732H8331z"/><path fill="#fefefe" d="M8331 7186h1379v733H8331z"/><path fill="#2b2a29" d="M8331 6111h1379v733H8331z"/><path fill="#2b2a29" fill-rule="nonzero" d="M20212 17814h317l1115 1689 1120-1689h313v2758h-338v-2154l-1095 1632-1095-1632v2154h-337v-2758zm4015 1786c0 143 13 261 36 355 24 94 66 167 126 220 59 53 140 91 243 113 102 22 232 33 389 33 156 0 286-11 388-33 103-22 184-60 243-113 60-53 102-126 126-220s36-212 36-355v-1786h342v1878c0 337-87 580-263 729-176 148-467 222-872 222-406 0-697-74-873-222-175-149-263-392-263-729v-1878h342v1786zm2702 261c198 153 401 269 611 347 210 79 417 118 622 118 133 0 252-14 358-43 105-29 195-70 268-123 74-53 131-114 172-184s61-146 61-228c0-126-54-235-161-327s-269-147-483-164l-335-26c-105-6-204-15-300-25-95-11-185-25-269-44-83-19-161-45-232-79-263-126-394-316-394-568 0-106 25-205 74-297s121-173 215-243c94-69 206-124 337-163 132-39 279-59 443-59 236 0 464 38 686 115 221 77 433 188 634 335l-199 286c-345-276-717-414-1116-414-218 0-392 42-522 125-129 84-194 184-194 300 0 95 44 177 133 245 58 45 126 77 205 97 78 21 165 36 260 46 96 11 200 18 313 23 112 6 231 15 358 29 290 34 514 126 672 276a743 743 0 0 1 156 883 836 836 0 0 1-235 281c-102 80-229 144-381 192s-325 71-519 71c-273 0-527-39-763-117-235-79-460-202-675-369l200-296zm3192-2062h348v2783h-348v-2783zm3724 2097a1382 1382 0 0 1-522 555 1450 1450 0 0 1-746 192c-205 0-395-36-571-107a1340 1340 0 0 1-749-755c-72-175-108-369-108-581 0-207 36-400 108-578a1333 1333 0 0 1 749-762c176-71 366-107 571-107 255 0 488 56 698 169 210 112 379 271 509 475l-287 205a951 951 0 0 0-376-389c-162-92-343-138-544-138-154 0-296 28-428 85a1034 1034 0 0 0-565 588c-55 138-82 289-82 452 0 164 27 314 82 451 55 136 130 255 225 355a986 986 0 0 0 340 233c132 55 274 82 428 82 214 0 406-53 575-159 169-105 308-262 417-470l276 204zm2328-35c198 153 402 269 611 347 210 79 417 118 622 118 133 0 252-14 358-43s195-70 269-123c73-53 130-114 171-184s61-146 61-228c0-126-53-235-161-327-107-92-268-147-483-164-120-10-231-19-335-26-104-6-204-15-300-25-95-11-185-25-268-44-84-19-161-45-233-79-263-126-394-316-394-568 0-106 25-205 74-297 50-92 122-173 215-243 94-69 207-124 338-163s279-59 443-59c235 0 463 38 685 115s433 188 634 335l-199 286c-345-276-716-414-1115-414-219 0-393 42-522 125-130 84-195 184-195 300 0 95 45 177 133 245 58 45 127 77 205 97 78 21 165 36 261 46 95 11 200 18 312 23 113 6 232 15 358 29 290 34 514 126 673 276a743 743 0 0 1 156 883 836 836 0 0 1-235 281c-103 80-230 144-382 192-151 48-324 71-519 71-273 0-527-39-762-117-236-79-461-202-675-369l199-296zm5663 35a1382 1382 0 0 1-521 555 1450 1450 0 0 1-747 192c-205 0-395-36-571-107a1340 1340 0 0 1-749-755c-72-175-108-369-108-581 0-207 36-400 108-578a1333 1333 0 0 1 749-762c176-71 366-107 571-107 255 0 488 56 698 169 210 112 379 271 509 475l-287 205a951 951 0 0 0-376-389c-162-92-343-138-544-138-154 0-296 28-428 85a1034 1034 0 0 0-565 588c-54 138-82 289-82 452 0 164 28 314 82 451 55 136 130 255 225 355a986 986 0 0 0 340 233c132 55 274 82 428 82 215 0 406-53 575-159 169-105 308-262 417-470l276 204zm686-2082h348v1090h1627v-1090h342v2758h-342v-1351h-1627v1351h-348v-2758zm4430 2507c154 0 296-28 427-84a1035 1035 0 0 0 566-586c54-137 81-287 81-451 0-163-27-314-81-452a1031 1031 0 0 0-565-588c-132-57-274-85-428-85-153 0-296 28-427 85a1034 1034 0 0 0-565 588c-55 138-82 289-82 452 0 164 27 314 82 451 54 136 129 255 225 355a986 986 0 0 0 340 233c131 55 274 82 427 82zm0 322c-204 0-395-36-570-107a1340 1340 0 0 1-750-755c-71-175-107-369-107-581 0-207 36-400 107-578 72-177 171-330 297-460s277-230 453-302c175-71 366-107 570-107 205 0 395 36 571 107a1343 1343 0 0 1 754 762c72 178 108 371 108 578 0 212-36 406-108 581-71 176-171 328-299 456a1363 1363 0 0 1-455 299c-176 71-366 107-571 107zm3315-322c154 0 296-28 427-84a1035 1035 0 0 0 566-586c54-137 82-287 82-451 0-163-28-314-82-452a1031 1031 0 0 0-565-588c-132-57-274-85-428-85-153 0-296 28-427 85a1034 1034 0 0 0-565 588c-55 138-82 289-82 452 0 164 27 314 82 451 54 136 129 255 225 355a986 986 0 0 0 340 233c131 55 274 82 427 82zm0 322c-204 0-395-36-570-107a1340 1340 0 0 1-750-755c-71-175-107-369-107-581 0-207 36-400 107-578 72-177 171-330 297-460s277-230 453-302c175-71 366-107 570-107 205 0 395 36 571 107a1343 1343 0 0 1 754 762c72 178 108 371 108 578 0 212-36 406-108 581-71 176-171 328-299 456a1363 1363 0 0 1-455 299c-176 71-366 107-571 107zm2108-2829h343v2441h1800v317h-2143v-2758z"/><path fill="#752e85" fill-rule="nonzero" d="M45038 15666c-316 0-575-104-777-305a1054 1054 0 0 1-305-777V5952c0-288 104-536 305-737a999 999 0 0 1 777-340h8633c287 0 535 115 736 340a959 959 0 0 1 340 737v8632c0 316-115 575-340 777a1008 1008 0 0 1-736 305h-8633zm7010-2158c138 0 259-46 374-133a569 569 0 0 0 167-408V7574c0-138-58-259-167-374a531 531 0 0 0-374-167h-5393c-161 0-293 58-408 167a606 606 0 0 0-132 374v5393c0 161 46 293 132 408a656 656 0 0 0 408 133h5393z"/><path fill="#752e85" fill-rule="nonzero" d="M33166 15666c-317 0-576-104-777-305a1054 1054 0 0 1-305-777V5952c0-288 104-536 305-737a999 999 0 0 1 777-340h8632c288 0 536 115 737 340a959 959 0 0 1 339 737v8632c0 316-115 575-339 777a1008 1008 0 0 1-737 305h-8632zm7009-2158c139 0 259-46 374-133a570 570 0 0 0 167-408V7574c0-138-57-259-167-374a531 531 0 0 0-374-167h-5392c-161 0-293 58-409 167a606 606 0 0 0-132 374v5393c0 161 46 293 132 408a656 656 0 0 0 409 133h5392z"/><path fill="#752e85" fill-rule="nonzero" d="M20212 15666V4875h9714c288 0 535 115 737 340a959 959 0 0 1 339 737v3240c0 316-115 575-339 776a1003 1003 0 0 1-737 300c288 0 535 115 737 339a962 962 0 0 1 339 743v3234c0 316-115 575-339 777a1008 1008 0 0 1-737 305h-9714zm8091-6474c138 0 259-47 374-133a570 570 0 0 0 167-408V7574c0-138-58-259-167-374a531 531 0 0 0-374-167h-5933v2159h5933zm0 4316c138 0 259-46 374-133a570 570 0 0 0 167-408v-1076c0-139-58-259-167-374a531 531 0 0 0-374-167h-5933v2158h5933z"/><path fill="#752e85" fill-rule="nonzero" d="M55829 15666V5952c0-288 128-536 377-737 249-225 569-340 960-340h3996c363 0 669 115 918 340 277 201 419 449 419 737 0-288 121-536 370-737 249-225 569-340 960-340h4004c355 0 661 115 910 340 278 201 420 449 420 737v9714h-2667V7574c0-138-71-259-206-374a736 736 0 0 0-463-167h-1329c-199 0-363 58-505 167a538 538 0 0 0-164 374v8092h-2667V7574c0-138-71-259-206-374a737 737 0 0 0-462-167h-1330c-199 0-363 58-505 167a539 539 0 0 0-163 374v8092h-2667z"/></svg>