<svg id="instagram" xmlns="http://www.w3.org/2000/svg" width="50.003" height="50.003" viewBox="0 0 50.003 50.003">
  <path id="Контур_1504" data-name="Контур 1504" d="M216.571,211.785A4.785,4.785,0,1,1,211.785,207,4.785,4.785,0,0,1,216.571,211.785Zm0,0" transform="translate(-186.784 -186.784)" fill="#9b00a2"/>
  <path id="Контур_1505" data-name="Контур 1505" d="M158.446,138.791a4.754,4.754,0,0,0-2.725-2.725,7.943,7.943,0,0,0-2.665-.494c-1.514-.069-1.968-.084-5.8-.084s-4.288.014-5.8.084a7.948,7.948,0,0,0-2.665.494,4.756,4.756,0,0,0-2.725,2.725,7.946,7.946,0,0,0-.494,2.666c-.069,1.514-.084,1.968-.084,5.8s.015,4.287.084,5.8a7.943,7.943,0,0,0,.494,2.665,4.754,4.754,0,0,0,2.725,2.725,7.933,7.933,0,0,0,2.666.494c1.514.069,1.967.084,5.8.084s4.288-.015,5.8-.084a7.933,7.933,0,0,0,2.666-.494,4.754,4.754,0,0,0,2.725-2.725,7.95,7.95,0,0,0,.494-2.665c.069-1.514.084-1.968.084-5.8s-.014-4.288-.084-5.8A7.933,7.933,0,0,0,158.446,138.791ZM147.254,154.63a7.372,7.372,0,1,1,7.372-7.372A7.372,7.372,0,0,1,147.254,154.63Zm7.663-13.313a1.723,1.723,0,1,1,1.723-1.723A1.723,1.723,0,0,1,154.918,141.317Zm0,0" transform="translate(-122.253 -122.257)" fill="#9b00a2"/>
  <path id="Контур_1506" data-name="Контур 1506" d="M25,0A25,25,0,1,0,50,25,25,25,0,0,0,25,0Zm14.27,30.92a10.533,10.533,0,0,1-.667,3.485,7.341,7.341,0,0,1-4.2,4.2,10.54,10.54,0,0,1-3.485.667c-1.531.07-2.02.087-5.919.087s-4.388-.017-5.919-.087A10.54,10.54,0,0,1,15.6,38.6a7.341,7.341,0,0,1-4.2-4.2,10.53,10.53,0,0,1-.667-3.485c-.071-1.531-.087-2.02-.087-5.919s.016-4.388.087-5.919A10.534,10.534,0,0,1,11.4,15.6a7.346,7.346,0,0,1,4.2-4.2,10.543,10.543,0,0,1,3.485-.667c1.531-.07,2.02-.087,5.919-.087s4.388.017,5.919.087a10.545,10.545,0,0,1,3.485.666,7.343,7.343,0,0,1,4.2,4.2,10.532,10.532,0,0,1,.668,3.485c.07,1.531.086,2.02.086,5.919S39.341,29.389,39.271,30.92Zm0,0" fill="#9b00a2"/>
</svg>
