<svg xmlns="http://www.w3.org/2000/svg" width="50.003" height="50.003" viewBox="0 0 50.003 50.003">
  <g id="vk-social-logotype" transform="translate(0)">
    <path id="Контур_1507" data-name="Контур 1507" d="M25,0A25,25,0,1,0,50,25,25,25,0,0,0,25,0ZM37.683,27.705a47.541,47.541,0,0,1,3.444,3.465,9.817,9.817,0,0,1,1.233,1.776c.475.921.046,1.932-.779,1.986H36.46A3.957,3.957,0,0,1,33.2,33.6c-.708-.721-1.366-1.491-2.048-2.236a4.79,4.79,0,0,0-.922-.821,1.07,1.07,0,0,0-1.7.414,5.365,5.365,0,0,0-.54,2.391c-.056,1.208-.42,1.523-1.632,1.58a13.116,13.116,0,0,1-7.33-1.577,16.179,16.179,0,0,1-4.932-4.617A62.221,62.221,0,0,1,7.6,17.165c-.41-.912-.11-1.4.9-1.419,1.672-.032,3.343-.028,5.015,0A1.474,1.474,0,0,1,14.9,16.787a31.122,31.122,0,0,0,3.4,6.3A5.385,5.385,0,0,0,19.582,24.5a.78.78,0,0,0,1.325-.39,4.3,4.3,0,0,0,.3-1.322,19.741,19.741,0,0,0-.081-4.629,1.931,1.931,0,0,0-1.645-1.767c-.489-.093-.417-.274-.18-.553a1.842,1.842,0,0,1,1.572-.782h5.787c.912.179,1.117.588,1.24,1.507l.005,6.431c-.011.356.179,1.409.817,1.642.512.169.849-.241,1.155-.565a20,20,0,0,0,3.262-5.01c.391-.793.728-1.614,1.055-2.437a1.246,1.246,0,0,1,1.309-.9l5.573.007a2.9,2.9,0,0,1,.494.03c.939.161,1.2.565.906,1.481a13.886,13.886,0,0,1-2.214,3.841c-.931,1.287-1.924,2.529-2.846,3.822C36.565,26.084,36.632,26.679,37.683,27.705Z" transform="translate(0)" fill="#9b00a2"/>
  </g>
</svg>
