<svg xmlns="http://www.w3.org/2000/svg" width="50.003" height="50.003" viewBox="0 0 50.003 50.003">
  <g id="youtube-symbol" transform="translate(0)">
    <g id="Сгруппировать_999" data-name="Сгруппировать 999" transform="translate(0)">
      <path id="Контур_1508" data-name="Контур 1508" d="M39.969,48.439,51.193,42.62,39.969,36.764Z" transform="translate(-19.523 -17.958)" fill="#9b00a2"/>
      <path id="Контур_1509" data-name="Контур 1509" d="M25,0A25,25,0,1,0,50,25,25,25,0,0,0,25,0ZM42.036,33.347a4.46,4.46,0,0,1-3.817,3.468A118.394,118.394,0,0,1,25,37.3a118.44,118.44,0,0,1-13.221-.49,4.457,4.457,0,0,1-3.815-3.468A37.794,37.794,0,0,1,7.349,25a37.793,37.793,0,0,1,.623-8.345,4.459,4.459,0,0,1,3.815-3.469A118.562,118.562,0,0,1,25.008,12.7a118.512,118.512,0,0,1,13.219.489,4.459,4.459,0,0,1,3.817,3.469A37.79,37.79,0,0,1,42.653,25,37.793,37.793,0,0,1,42.036,33.347Z" fill="#9b00a2"/>
    </g>
  </g>
</svg>
