<svg xmlns="http://www.w3.org/2000/svg" width="101.176" height="103.916" viewBox="0 0 101.176 103.916">
  <g id="happy-baby" transform="translate(1 1)">
    <path id="Контур_568" data-name="Контур 568" d="M209.132,164.642a7.68,7.68,0,0,0-7.671,7.671,1.609,1.609,0,0,0,3.218,0,4.453,4.453,0,1,1,8.906,0,1.609,1.609,0,0,0,3.218,0A7.68,7.68,0,0,0,209.132,164.642Z" transform="translate(-143.893 -116.474)" fill="#fffdc0" stroke="#fffdc0" stroke-width="2"/>
    <path id="Контур_569" data-name="Контур 569" d="M104.132,167.86a4.458,4.458,0,0,1,4.453,4.453,1.609,1.609,0,1,0,3.218,0,7.671,7.671,0,0,0-15.342,0,1.609,1.609,0,1,0,3.218,0A4.458,4.458,0,0,1,104.132,167.86Z" transform="translate(-69.611 -116.474)" fill="#fffdc0" stroke="#fffdc0" stroke-width="2"/>
    <path id="Контур_570" data-name="Контур 570" d="M103.861,59.787A9.227,9.227,0,0,0,95.5,50.612,42.115,42.115,0,0,0,62.99,18.8a2.926,2.926,0,0,1,.141-4.462h0A6.15,6.15,0,0,0,63.1,4.7c-.018-.014-.038-.023-.056-.036a2.911,2.911,0,0,1-1.021-2.218A1.609,1.609,0,0,0,60.417.836h0a1.609,1.609,0,0,0-1.609,1.609,6.115,6.115,0,0,0,2.345,4.832c.019.015.041.026.061.04a2.926,2.926,0,0,1-.089,4.506h0a6.151,6.151,0,0,0-2.117,6.362q-1.769-.187-3.579-.224a2.926,2.926,0,0,1,.142-4.46h0a6.15,6.15,0,0,0-.028-9.639c-.018-.014-.039-.023-.057-.037a2.913,2.913,0,0,1-1.02-2.217,1.609,1.609,0,1,0-3.218,0,6.118,6.118,0,0,0,2.345,4.832c.019.015.04.025.06.039a2.925,2.925,0,0,1-.088,4.507h0a6.155,6.155,0,0,0-1.888,7.066,41.909,41.909,0,0,0-4.6.568,2.925,2.925,0,0,1,.323-4.282h0A6.15,6.15,0,0,0,47.371,4.7c-.018-.014-.038-.023-.056-.036a2.911,2.911,0,0,1-1.021-2.218A1.609,1.609,0,0,0,44.685.836h0a1.609,1.609,0,0,0-1.609,1.609,6.115,6.115,0,0,0,2.345,4.832c.019.015.041.026.061.04a2.926,2.926,0,0,1-.089,4.506h0a6.158,6.158,0,0,0-1.674,7.551,42.13,42.13,0,0,0-30.082,31.2,9.213,9.213,0,0,0-.064,18.416,41.984,41.984,0,0,0,82-.038A9.227,9.227,0,0,0,103.861,59.787Zm-95.959,0a6,6,0,0,1,5.122-5.926,42.016,42.016,0,0,0-.042,11.846A6,6,0,0,1,7.9,59.787ZM54.565,98.7A38.764,38.764,0,1,1,93.329,59.933,38.808,38.808,0,0,1,54.565,98.7Zm41.6-33.116a42.015,42.015,0,0,0-.043-11.6,5.989,5.989,0,0,1,.043,11.6Z" transform="translate(-4.685 0.002)" fill="#fffdc0" stroke="#fffdc0" stroke-width="2"/>
    <path id="Контур_571" data-name="Контур 571" d="M146.749,246.958a1.61,1.61,0,0,0-2.06.965,16.455,16.455,0,0,1-30.944,0,1.609,1.609,0,0,0-3.026,1.095,19.673,19.673,0,0,0,37,0A1.609,1.609,0,0,0,146.749,246.958Z" transform="translate(-79.63 -174.639)" fill="#fffdc0" stroke="#fffdc0" stroke-width="2"/>
  </g>
</svg>
