<svg id="Outline" xmlns="http://www.w3.org/2000/svg" width="124.497" height="124.498" viewBox="0 0 124.497 124.498">
  <path id="Контур_603" data-name="Контур 603" d="M219.112,136a3.112,3.112,0,1,0,3.112,3.112A3.112,3.112,0,0,0,219.112,136Z" transform="translate(-164.126 -104.876)" fill="#fffdc0"/>
  <path id="Контур_604" data-name="Контур 604" d="M291.112,136a3.112,3.112,0,1,0,3.112,3.112A3.112,3.112,0,0,0,291.112,136Z" transform="translate(-217.451 -104.876)" fill="#fffdc0"/>
  <path id="Контур_605" data-name="Контур 605" d="M246.225,178.075A2.077,2.077,0,0,1,244.15,176H240a6.225,6.225,0,0,0,12.45,0H248.3A2.077,2.077,0,0,1,246.225,178.075Z" transform="translate(-181.901 -134.501)" fill="#fffdc0"/>
  <path id="Контур_606" data-name="Контур 606" d="M139.764,91.191a2.078,2.078,0,0,0-1.682-.464l-18.759,3.127a9.441,9.441,0,0,0-3.476,1.317l-1.43-3.61a13.82,13.82,0,0,0-2.381-3.975l.541-4.906a35.943,35.943,0,0,0,.219-3.765,33.864,33.864,0,0,0-2.761-13.37,29.971,29.971,0,0,1-2.367-13.254l.353-7.182c.022-.453.044-.921.044-1.385A27.737,27.737,0,1,0,52.625,45.11l.352,7.159c.021.535.04,1.039.04,1.539a29.58,29.58,0,0,1-2.405,11.736A33.906,33.906,0,0,0,48.07,82.692l.54,4.839a14.087,14.087,0,0,0-1.643,2.376l-2.833-7.081a6.112,6.112,0,1,0-11.14,5l.4.794H29.314a10.427,10.427,0,0,1-4.64-1.1l-2.068-1.034A4.565,4.565,0,0,0,16,90.577v5.856A6.191,6.191,0,0,0,19.441,102l3.377,1.689a14.6,14.6,0,0,0,6.5,1.533h1.211v6.145l-1.491,19.377a9.058,9.058,0,0,0,9.032,9.752q.23,0,.458-.012c.132.006.264.011.4.011a8.352,8.352,0,0,0,7.846-5.487l9.471-17.61a18.149,18.149,0,0,0,3.337,7.224V140.5h4.15V123.9a2.075,2.075,0,0,0-.481-1.328,14.147,14.147,0,0,1,1.809-19.9L62.4,99.479a18.29,18.29,0,0,0-2.578,2.632,2.134,2.134,0,0,0-.214.259l0,0-.037.065c-.009.015-.017.031-.026.045a18.17,18.17,0,0,0-2.7,5.043l-9.714,18.063V100.375l2.949-7.342a9.945,9.945,0,0,1,2.184-3.349A10.5,10.5,0,0,1,59.7,86.549h6.944L78.5,108.292a2.075,2.075,0,0,0,3.643,0l4.4-8.073v27.829a2.075,2.075,0,0,0,1.668,2.035l8.707,1.741V140.5h4.15v-7.844l7.939,1.586c.052.009.292.033.361.033H113.3l.4.742a8.406,8.406,0,0,0,7.877,5.483,7.812,7.812,0,0,0,1.368-.113,8.41,8.41,0,0,0,6.495-5.418l5.518-.92h0a4.133,4.133,0,0,0,3.458-3.881l.415-.083a2.075,2.075,0,0,0,1.67-2.035V92.773A2.075,2.075,0,0,0,139.764,91.191ZM71.134,86.119A4.984,4.984,0,0,0,74.1,81.569v-6.35a20.76,20.76,0,0,0,12.45,0v6.35a4.984,4.984,0,0,0,2.964,4.55l-2.5,4.58H73.632Zm9.189-14.1a16.618,16.618,0,0,1-16.6-16.6v-9.29A30.312,30.312,0,0,0,72.7,35.854,53.748,53.748,0,0,0,96.923,46.818v8.606a16.618,16.618,0,0,1-16.6,16.6Zm28.042,17.7.038.039a9.616,9.616,0,0,1,2.153,3.323l.891,2.251a9.438,9.438,0,0,0-3.724-1.478L91.5,91.149l2.509-4.6h6.923A10.28,10.28,0,0,1,108.365,89.719Zm1.213,11.354-9.441-1.888L90.7,97.3V95.222l16.343,2.723a5.256,5.256,0,0,1,3.987,3.128Zm10.427-3.126,16.342-2.724V97.3l-9.759,1.952-9.121,1.824h-1.448A5.256,5.256,0,0,1,120,97.947ZM24.674,99.978,21.3,98.289a2.064,2.064,0,0,1-1.147-1.856V90.577a.415.415,0,0,1,.6-.371l2.068,1.034a14.6,14.6,0,0,0,6.5,1.533h7.436a2.075,2.075,0,0,0,1.856-3l-1.9-3.8a1.961,1.961,0,0,1,1.278-2.78h0a1.968,1.968,0,0,1,2.3,1.174L42.974,91.1v9.975H29.314a10.427,10.427,0,0,1-4.64-1.1Zm18.3,5.245v4.15h-8.3v-4.15Zm-9.8,25.839,1.349-17.54h8.453v17.916a4.911,4.911,0,0,1-4.553,4.891,2.115,2.115,0,0,0-.233.012c-.041,0-.081.006-.122.006a4.908,4.908,0,0,1-4.894-5.285Zm26.435-28.69a2.075,2.075,0,0,1,.132-.16c-.043.054-.084.109-.126.164ZM52.433,84.359l-.238-2.132a29.75,29.75,0,0,1,2.231-15.049,33.7,33.7,0,0,0,2.742-13.372c0-.58-.022-1.148-.044-1.72L56.77,44.9a23.587,23.587,0,1,1,47.146-1.184c0,.366-.019.765-.039,1.185l-.352,7.175a34.136,34.136,0,0,0,2.7,15.093,29.739,29.739,0,0,1,2.427,11.739,31.787,31.787,0,0,1-.2,3.32l-.236,2.138a14.512,14.512,0,0,0-7.288-1.972h-9.4a.841.841,0,0,1-.83-.83V73.382a20.756,20.756,0,0,0,10.375-17.958V45.049A2.075,2.075,0,0,0,99.291,43,49.61,49.61,0,0,1,74.531,31.988l-1.178-.982a2.075,2.075,0,0,0-3.184.666l-.8,1.608A26.141,26.141,0,0,1,60.5,43.323a2.075,2.075,0,0,0-.924,1.727V55.424A20.756,20.756,0,0,0,69.949,73.382v8.186a.841.841,0,0,1-.83.83H59.7a14.618,14.618,0,0,0-7.266,1.96Zm27.891,18.606L75.9,94.848h8.854ZM90.7,101.529l16.6,3.32v24.817l-16.6-3.32Zm20.75,3.694h4.15v24.9h-4.15ZM122.229,136.3a3.709,3.709,0,0,1-.656.052,4.251,4.251,0,0,1-3.657-2.091c.039,0,.078-.011.116-.018l.046-.007h0l.014,0,4.265-.853a4.1,4.1,0,0,0,2.089,1.819,4.326,4.326,0,0,1-2.222,1.1Zm12.043-6.343h0l-8.3,1.383v-7.712a.625.625,0,0,1,.523-.618l7.048-1.175a.68.68,0,0,1,.106-.009.627.627,0,0,1,.622.627l0,7.5Zm-1.411-12.214-7.048,1.174a4.761,4.761,0,0,0-3.991,4.711v5.628l-2.075.415V104.849l16.6-3.32v16.983a4.762,4.762,0,0,0-3.486-.774Z" transform="translate(-16 -16)" fill="#fffdc0"/>
</svg>
