<svg id="group" xmlns="http://www.w3.org/2000/svg" width="124.491" height="124.491" viewBox="0 0 124.491 124.491">
  <path id="Контур_559" data-name="Контур 559" d="M124.491,64.254V48.142a9.978,9.978,0,0,0-7.154-9.616l-12.925-3.878V31.6a14.04,14.04,0,0,0,6.024-11.517V14.056a14.055,14.055,0,0,0-28.111,0v6.024A14.035,14.035,0,0,0,88.349,31.6v3.05L76.958,38.064a23.2,23.2,0,0,0-30.6-.351L36.143,34.649V31.6a14.04,14.04,0,0,0,6.024-11.517V14.056a14.055,14.055,0,1,0-28.111,0v6.024A14.035,14.035,0,0,0,20.079,31.6v3.05L7.154,38.524A9.982,9.982,0,0,0,0,48.142V64.254H4.016V48.142a5.984,5.984,0,0,1,4.293-5.769l12.929-3.88a8.733,8.733,0,0,0,6.873,3.673,8.733,8.733,0,0,0,6.873-3.673l8.235,2.47A23.176,23.176,0,0,0,38.335,52.63a14.036,14.036,0,0,0-24.279,9.616v6.024a14.035,14.035,0,0,0,6.024,11.517v3.05L7.154,86.714A9.982,9.982,0,0,0,0,96.332v18.119H24.1A2.012,2.012,0,0,1,26.1,116.46v8.032H98.388V116.46a2.012,2.012,0,0,1,2.008-2.008h24.1V96.332a9.978,9.978,0,0,0-7.154-9.616l-12.925-3.878v-3.05a14.04,14.04,0,0,0,6.024-11.517V62.248a14.043,14.043,0,0,0-24.1-9.819v-1.9A10.8,10.8,0,0,0,80.823,41.1L89.507,38.5a8.268,8.268,0,0,0,13.746,0l12.931,3.88a5.984,5.984,0,0,1,4.291,5.769V64.254ZM28.111,4.016a10.051,10.051,0,0,1,10.04,10.04H28.942a4.881,4.881,0,0,1-3.428-1.42l-1.42-1.42-1.42,1.42a4.881,4.881,0,0,1-3.428,1.42H18.071a10.051,10.051,0,0,1,10.04-10.04ZM18.071,20.079V18.071h1.177A8.793,8.793,0,0,0,24.1,16.632a8.793,8.793,0,0,0,4.847,1.439h9.208v2.008a10.04,10.04,0,1,1-20.079,0Zm10.04,18.071c-2.134,0-3.518-1.793-4.016-2.56V33.545a13.935,13.935,0,0,0,8.032,0v2.046c-.5.771-1.881,2.562-4.016,2.562ZM83.3,73.393a14.116,14.116,0,0,0,5.044,6.4v3.05L75.425,86.716a9.857,9.857,0,0,0-1.243.474l-1.9-.437V82.8a16.148,16.148,0,0,0,4.876-6.586A10,10,0,0,0,83.3,73.393ZM62.245,86.341a15.953,15.953,0,0,0,6.024-1.182v2.186l-6.024,4.518-6.024-4.518V85.158a15.953,15.953,0,0,0,6.024,1.182Zm-8.49,4.175,4.9,3.673L53.616,97.21l-1.274-6.367Zm6.271,15.9h4.437l1.562,14.055H58.465Zm4.786-4.016H59.676l-1.153-3.458,3.723-2.232,3.721,2.232Zm1.027-8.216,4.9-3.673,1.414.325-1.274,6.367ZM80.759,70.314a6.022,6.022,0,0,1-2.536,1.623,16.283,16.283,0,0,0,.086-1.659V60.669a6.063,6.063,0,0,1,3.985,4.992,5.99,5.99,0,0,1-1.535,4.652Zm-6.466-.036a12.048,12.048,0,1,1-24.1,0V60.238h6.817a25.823,25.823,0,0,0,12.441-3.179l1.588,3.179h3.249ZM46.268,71.936a5.937,5.937,0,0,1-.086-11.265v9.606a16.284,16.284,0,0,0,.086,1.659Zm1.062,4.275A16.113,16.113,0,0,0,52.206,82.8v3.956l-1.9.437a10.391,10.391,0,0,0-1.241-.474L36.143,82.839v-3.05a14.13,14.13,0,0,0,5.044-6.4,10,10,0,0,0,6.143,2.818Zm-19.219-24a10.051,10.051,0,0,1,10.04,10.04H36.974a4.881,4.881,0,0,1-3.428-1.42l-1.42-1.42-1.42,1.42a4.881,4.881,0,0,1-3.428,1.42H18.071a10.051,10.051,0,0,1,10.04-10.04ZM18.071,68.269V66.262h9.208a8.793,8.793,0,0,0,4.847-1.439,8.793,8.793,0,0,0,4.847,1.439h1.177v2.008a10.04,10.04,0,0,1-20.079,0Zm10.04,14.055a13.971,13.971,0,0,0,4.016-.592v2.046c-.5.771-1.881,2.562-4.016,2.562s-3.518-1.793-4.016-2.56V81.735A14.038,14.038,0,0,0,28.111,82.325ZM24.1,110.436H16.063V96.38H12.048v14.055H4.016v-14.1a5.984,5.984,0,0,1,4.293-5.769l12.929-3.88a8.733,8.733,0,0,0,6.873,3.673,8.733,8.733,0,0,0,6.873-3.673L42.6,88.969,37,90.261a13.993,13.993,0,0,0-10.895,13.7v2.464h4.016v-2.464A10,10,0,0,1,37.9,94.173l10.526-2.43,2.367,11.839,4.2-2.52,1.188,3.566-1.759,15.847H44.174V104.412H40.158v16.063H30.119V116.46a6.032,6.032,0,0,0-6.024-6.024Zm92.087-19.872a5.984,5.984,0,0,1,4.293,5.769v14.1h-8.032V96.38h-4.016v14.055H100.4a6.032,6.032,0,0,0-6.024,6.024v4.016H84.333V104.412H80.317v16.063H70.067l-1.761-15.847,1.188-3.566,4.2,2.52,2.367-11.839,10.528,2.43a10,10,0,0,1,7.783,9.783v2.464h4.016v-2.464a13.993,13.993,0,0,0-10.895-13.7l-5.6-1.291,7.614-2.285a8.267,8.267,0,0,0,13.746,0ZM100.4,83.781c-.5.769-1.881,2.56-4.016,2.56s-3.524-1.8-4.016-2.56V81.733a13.913,13.913,0,0,0,8.032,0ZM96.38,78.309a10.051,10.051,0,0,1-10.04-10.04V66.262h1.177a8.793,8.793,0,0,0,4.847-1.439,8.794,8.794,0,0,0,4.847,1.439h9.208v2.008A10.051,10.051,0,0,1,96.38,78.309Zm0-26.1a10.051,10.051,0,0,1,10.04,10.04H97.212a4.881,4.881,0,0,1-3.428-1.42l-1.42-1.42-1.42,1.42a4.881,4.881,0,0,1-3.428,1.42H86.341a10.051,10.051,0,0,1,10.04-10.04ZM82.325,58.4a10.549,10.549,0,0,0-6.369-2.179h-2.43l-2.47-4.939-1.892,1.261a21.83,21.83,0,0,1-12.15,3.679h-8.48A10.549,10.549,0,0,0,42.166,58.4v-2.97a19.29,19.29,0,0,1,32.928-13.64l2.13,2.13.45.151a6.793,6.793,0,0,1,4.65,6.451ZM96.38,4.016a10.051,10.051,0,0,1,10.04,10.04h-1.177a4.881,4.881,0,0,1-3.428-1.42l-1.42-1.42-1.42,1.42a4.881,4.881,0,0,1-3.428,1.42H86.341A10.051,10.051,0,0,1,96.38,4.016ZM86.341,20.079V18.071h9.208a8.793,8.793,0,0,0,4.847-1.439,8.793,8.793,0,0,0,4.847,1.439h1.177v2.008a10.04,10.04,0,1,1-20.079,0ZM96.38,38.151c-2.138,0-3.524-1.8-4.016-2.56V33.542a13.913,13.913,0,0,0,8.032,0v2.046c-.5.771-1.881,2.562-4.016,2.562Zm0,0" transform="translate(0 0)" fill="#fffdc0"/>
  <path id="Контур_560" data-name="Контур 560" d="M184,0h4.016V4.016H184Zm0,0" transform="translate(-137.818)" fill="#fffdc0"/>
  <path id="Контур_561" data-name="Контур 561" d="M184,32h4.016V54.087H184Zm0,0" transform="translate(-137.818 -23.968)" fill="#fffdc0"/>
  <path id="Контур_562" data-name="Контур 562" d="M296,0h4.016V4.016H296Zm0,0" transform="translate(-221.707)" fill="#fffdc0"/>
  <path id="Контур_563" data-name="Контур 563" d="M296,32h4.016V54.087H296Zm0,0" transform="translate(-221.707 -23.968)" fill="#fffdc0"/>
  <path id="Контур_564" data-name="Контур 564" d="M216,32h4.016V46.055H216Zm0,0" transform="translate(-161.786 -23.968)" fill="#fffdc0"/>
  <path id="Контур_565" data-name="Контур 565" d="M216,104h4.016v4.016H216Zm0,0" transform="translate(-161.786 -77.897)" fill="#fffdc0"/>
  <path id="Контур_566" data-name="Контур 566" d="M264,32h4.016V46.055H264Zm0,0" transform="translate(-197.739 -23.968)" fill="#fffdc0"/>
  <path id="Контур_567" data-name="Контур 567" d="M264,104h4.016v4.016H264Zm0,0" transform="translate(-197.739 -77.897)" fill="#fffdc0"/>
</svg>
