<svg xmlns="http://www.w3.org/2000/svg" width="94.588" height="101.62" viewBox="0 0 94.588 101.62">
  <g id="man-with-moustache-smiling" transform="translate(0.5 0.5)">
    <path id="Контур_572" data-name="Контур 572" d="M108.294,54.739a10.979,10.979,0,0,0-2.576-7.075V44.218a44.218,44.218,0,0,0-88.436,0v3.446A11.022,11.022,0,0,0,23.94,65.621c1.848,8.094,8.313,17.4,19.295,27.757a26.658,26.658,0,0,0,36.533,0c10.982-10.353,17.447-19.664,19.3-27.758A11.047,11.047,0,0,0,108.294,54.739ZM61.5,3.826a40.438,40.438,0,0,1,40.392,40.392v.511a10.958,10.958,0,0,0-4.4-1.016,71,71,0,0,0-7.072-17.728h0l-.292-.516a9.934,9.934,0,0,0-8.012-5.032A9.83,9.83,0,0,0,73.6,24.315l-.077.1a14.987,14.987,0,0,1-24.057-.005l-.078-.1a9.824,9.824,0,0,0-8.514-3.875,9.933,9.933,0,0,0-8.011,5.033l-.295.521a71,71,0,0,0-7.067,17.724,10.954,10.954,0,0,0-4.4,1.016v-.511A40.438,40.438,0,0,1,61.5,3.826ZM18.532,54.739a7.217,7.217,0,0,1,6.114-7.123,70.907,70.907,0,0,0-1.264,13.306c0,.209.007.42.014.63A7.216,7.216,0,0,1,18.532,54.739ZM77.143,90.595a22.828,22.828,0,0,1-31.284,0c-12.2-11.5-18.651-21.763-18.651-29.68A67.262,67.262,0,0,1,35.9,27.873l.295-.521a6.118,6.118,0,0,1,4.935-3.1q.216-.014.428-.014a5.915,5.915,0,0,1,4.783,2.384l.059.079a18.813,18.813,0,0,0,30.192,0l.062-.082a5.928,5.928,0,0,1,5.209-2.367,6.119,6.119,0,0,1,4.936,3.1l.292.516a67.261,67.261,0,0,1,8.7,33.053C95.794,68.831,89.345,79.092,77.143,90.595ZM99.606,61.551c.007-.21.014-.421.014-.629a70.855,70.855,0,0,0-1.265-13.306,7.205,7.205,0,0,1,1.25,13.935Z" transform="translate(-14.706 0)" fill="#fffdc0" stroke="#fffdc0" stroke-width="1"/>
    <path id="Контур_573" data-name="Контур 573" d="M193.213,324.513a4.409,4.409,0,0,1-6.236,0,1.913,1.913,0,1,0-2.705,2.705,8.235,8.235,0,0,0,11.646,0,1.913,1.913,0,1,0-2.705-2.705Z" transform="translate(-143.3 -246.491)" fill="#fffdc0" stroke="#fffdc0" stroke-width="1"/>
    <ellipse id="Эллипс_178" data-name="Эллипс 178" cx="3.755" cy="3.755" rx="3.755" ry="3.755" transform="translate(22.271 55.202)" fill="#fffdc0" stroke="#fffdc0" stroke-width="1"/>
    <ellipse id="Эллипс_179" data-name="Эллипс 179" cx="3.755" cy="3.755" rx="3.755" ry="3.755" transform="translate(63.81 55.202)" fill="#fffdc0" stroke="#fffdc0" stroke-width="1"/>
    <path id="Контур_574" data-name="Контур 574" d="M268.662,177.336l-6.03,2.258a1.913,1.913,0,1,0,1.342,3.583l6.03-2.258a3.764,3.764,0,0,1,4.839,2.2,1.913,1.913,0,0,0,3.583-1.342,7.585,7.585,0,0,0-9.764-4.443Z" transform="translate(-202.404 -134.563)" fill="#fffdc0" stroke="#fffdc0" stroke-width="1"/>
    <path id="Контур_575" data-name="Контур 575" d="M96.211,180.92l6.03,2.258a1.913,1.913,0,0,0,1.342-3.583l-6.03-2.258a7.585,7.585,0,0,0-9.764,4.443,1.913,1.913,0,1,0,3.583,1.342A3.764,3.764,0,0,1,96.211,180.92Z" transform="translate(-70.221 -134.564)" fill="#fffdc0" stroke="#fffdc0" stroke-width="1"/>
    <path id="Контур_576" data-name="Контур 576" d="M148.827,291.822a1.913,1.913,0,1,0,1.845-3.352l-1.5-.823a5.705,5.705,0,0,0-7.75,2.246l-.457.831a1.882,1.882,0,0,1-2.554.74,1.913,1.913,0,0,0-1.845,3.352,5.708,5.708,0,0,0,7.75-2.246l.457-.831a1.88,1.88,0,0,1,2.553-.74Z" transform="translate(-106.678 -218.326)" fill="#fffdc0" stroke="#fffdc0" stroke-width="1"/>
    <path id="Контур_577" data-name="Контур 577" d="M231.224,291.465a1.882,1.882,0,0,1-2.553-.74l-.457-.831a5.706,5.706,0,0,0-7.75-2.246l-1.5.823a1.913,1.913,0,1,0,1.845,3.352l1.5-.823a1.88,1.88,0,0,1,2.553.74l.457.831a5.708,5.708,0,0,0,7.75,2.246,1.913,1.913,0,1,0-1.845-3.351Z" transform="translate(-169.373 -218.327)" fill="#fffdc0" stroke="#fffdc0" stroke-width="1"/>
  </g>
</svg>
