<svg id="office-worker_1_" data-name="office-worker (1)" xmlns="http://www.w3.org/2000/svg" width="98.601" height="131.196" viewBox="0 0 98.601 131.196">
  <path id="Контур_578" data-name="Контур 578" d="M195.851,75.293l24.9,3.558v4.492h3.851V75.511L192,70.853v12.49h3.851Z" transform="translate(-159.003 -52.662)" fill="#fffdc0"/>
  <path id="Контур_579" data-name="Контур 579" d="M157.742,66.806l-28.66-8.189V49.8h-.043a20.492,20.492,0,0,0,4.151-12.324v-1.89l4.108-4.108V12.2A12.209,12.209,0,0,0,125.1,0H100.455a12.209,12.209,0,0,0-12.2,12.2V31.478l4.108,4.108v1.257A21.426,21.426,0,0,0,96.695,49.8h-.22v8.817l-28.66,8.189L63.478,131.2h98.6Zm.218,60.54H145.513V85.359l8.826-11.767ZM100.326,53.521a19.811,19.811,0,0,0,11.1,4.323q.69.045,1.373.044a20.183,20.183,0,0,0,12.434-4.236v5.3l-12.452,7.115-12.452-7.115Zm15.735,49.608-6.346-6.346.218-6.047,5.944,7.295Zm-6.893,8.823,7.482,7.482.18,5-7.83-7.83Zm.189-5.257.168-4.656,6.74,6.74.18,5Zm.806-21.774-.021.017.17-4.706,5.107,5.107.228,6.311Zm4.853-10.757.2,5.525L110.5,74.976l.029-.8,2.248-2.81Zm-10.257,53.18H83.895V81.951L73.061,69.312l16.684-4.767,14.884,17.01,1.866-2.333Zm4.051-5.481,5.481,5.481h-5.679Zm10.241-42.655,1.877,2.346,14.884-17.01,16.881,4.823-11.03,14.707v43.27H120.789Zm12.666-15.834-10.657,12.18-5.372-6.715,11.719-6.7ZM92.111,29.883V12.2a8.354,8.354,0,0,1,8.344-8.344H125.1a8.354,8.354,0,0,1,8.344,8.344V29.883l-4.108,4.108v3.485A16.562,16.562,0,0,1,111.672,54c-8.666-.561-15.454-8.1-15.454-17.158V33.991Zm6.039,32.26,11.719,6.7L104.5,75.555,93.839,63.376ZM71.25,73.116l8.793,10.259v43.97H67.6Z" transform="translate(-63.478)" fill="#fffdc0"/>
</svg>
