<svg id="team" xmlns="http://www.w3.org/2000/svg" width="143.814" height="105.576" viewBox="0 0 143.814 105.576">
  <g id="Сгруппировать_99" data-name="Сгруппировать 99" transform="translate(110.319 45.05)">
    <g id="Сгруппировать_98" data-name="Сгруппировать 98">
      <path id="Контур_596" data-name="Контур 596" d="M409.315,230.924c-4.894-2.447-14.069-2.475-14.457-2.475a2.107,2.107,0,1,0,0,4.213c2.368,0,9.242.365,12.573,2.03a2.107,2.107,0,0,0,1.884-3.769Z" transform="translate(-392.751 -228.449)" fill="#fffdc0"/>
    </g>
  </g>
  <g id="Сгруппировать_101" data-name="Сгруппировать 101" transform="translate(0 0)">
    <g id="Сгруппировать_100" data-name="Сгруппировать 100">
      <path id="Контур_597" data-name="Контур 597" d="M137.385,145.584l-8.7-2.486a.883.883,0,0,1-.638-.846v-2.9a15.835,15.835,0,0,0,2.014-1.652,15.5,15.5,0,0,0,4.743-11.212v-4.007l.841-1.682a13.439,13.439,0,0,0,1.411-5.979V103.96a2.107,2.107,0,0,0-2.107-2.107H114.678a13.384,13.384,0,0,0-13.369,13.369v.126a11.174,11.174,0,0,0,1.174,4.971l1.079,2.158v3.441a16.437,16.437,0,0,0,6.758,13.29v3.044c0,.469,0,.664-1.74,1.161l-4.245,1.213L92.054,140.16a2.1,2.1,0,0,0-.574-1.613l-3.924-4.123V127.5c.415-.342.824-.693,1.22-1.064a24.725,24.725,0,0,0,7.79-17.974v-5.527A24.351,24.351,0,0,0,98.818,92.7V70.173a2.107,2.107,0,0,0-2.107-2.107H65.176A20.149,20.149,0,0,0,45.05,88.192V92.7a24.351,24.351,0,0,0,2.252,10.24v4.756a25.741,25.741,0,0,0,9.01,19.647v7.084l-3.924,4.123a2.1,2.1,0,0,0-.574,1.613l-12.962,4.713a11.047,11.047,0,0,0-2.6,1.365l-2.035-1.018c6.059-2.637,7.978-6.346,8.07-6.531a2.106,2.106,0,0,0,0-1.884c-1.519-3.038-1.7-8.6-1.85-13.078-.049-1.489-.1-2.9-.185-4.149-.718-10.1-8.4-17.725-17.869-17.725S5.228,109.473,4.51,119.578c-.089,1.253-.136,2.66-.185,4.15-.148,4.473-.332,10.04-1.85,13.078a2.106,2.106,0,0,0,0,1.884c.092.184,2.008,3.886,8.078,6.526L4.9,148.042A8.818,8.818,0,0,0,0,155.971v15.564a2.107,2.107,0,1,0,4.213,0V155.971a4.626,4.626,0,0,1,2.571-4.16l7.04-3.52,2.449,2.327a8.86,8.86,0,0,0,12.212,0l2.448-2.327,2.3,1.148a11.094,11.094,0,0,0-1.694,5.882v16.214a2.107,2.107,0,1,0,4.213,0V155.321a6.924,6.924,0,0,1,4.544-6.488l13.666-4.969,5.689,8.534a4.343,4.343,0,0,0,3.2,1.92q.218.021.435.021a4.342,4.342,0,0,0,3.078-1.277l3.471-3.471v21.944a2.107,2.107,0,1,0,4.213,0V149.591l3.471,3.471a4.34,4.34,0,0,0,3.078,1.277q.216,0,.434-.021a4.343,4.343,0,0,0,3.2-1.92l5.689-8.533,13.665,4.969a6.925,6.925,0,0,1,4.544,6.488v16.214a2.107,2.107,0,1,0,4.213,0V155.321a11.137,11.137,0,0,0-3.116-7.708l.52-.149a11.553,11.553,0,0,0,1.96-.708l5.379,5.379v19.4a2.107,2.107,0,1,0,4.213,0v-19.4l5.341-5.341a5.011,5.011,0,0,0,.9.356l8.7,2.486a4.671,4.671,0,0,1,3.373,4.472v17.427a2.107,2.107,0,1,0,4.213,0V154.108A8.9,8.9,0,0,0,137.385,145.584ZM13.515,141.863a15.145,15.145,0,0,1-6.761-4.341,23.221,23.221,0,0,0,1.2-5.044,15.709,15.709,0,0,0,5.56,6.86Zm12.068,5.7a4.649,4.649,0,0,1-6.408,0L17.216,145.7a4.359,4.359,0,0,0,.512-2.057V141.4a15.665,15.665,0,0,0,9.3,0v2.244a4.359,4.359,0,0,0,.512,2.058Zm-3.2-9.671a11.421,11.421,0,0,1-11.408-11.408,2.094,2.094,0,0,0-2.452-2.076c.006-.181.012-.363.018-.542.047-1.449.092-2.817.176-3.99a15.64,15.64,0,0,1,4.259-9.822,13.089,13.089,0,0,1,18.814,0,15.64,15.64,0,0,1,4.259,9.822c.083,1.173.129,2.541.176,3.989l.013.376a18.929,18.929,0,0,0-10.405-7.6,26.44,26.44,0,0,0-8.013-1.27,2.107,2.107,0,0,0-1.458.644l-3.8,3.942a2.107,2.107,0,1,0,3.033,2.925l3.163-3.28c2.724.133,11.487,1.152,14.895,8.657A11.381,11.381,0,0,1,22.38,137.894Zm8.863,3.977v-2.513A15.583,15.583,0,0,0,36.8,132.49a23.192,23.192,0,0,0,1.2,5.033A15.217,15.217,0,0,1,31.243,141.87Zm20.273-34.177v-5.227a2.107,2.107,0,0,0-.21-.916A20.207,20.207,0,0,1,49.263,92.7v-4.5A15.931,15.931,0,0,1,65.176,72.28H94.6V92.7a20.207,20.207,0,0,1-2.043,8.853,2.107,2.107,0,0,0-.21.916v6a20.224,20.224,0,0,1-6.458,14.9,20.967,20.967,0,0,1-1.617,1.369l-.036.026a20.256,20.256,0,0,1-13.67,4.078C59.886,128.148,51.516,118.859,51.516,107.693Zm11.862,42.389a.132.132,0,0,1-.117.042.134.134,0,0,1-.107-.064L56.6,140.232l2.108-2.215,9.939,6.794Zm8.557-8.13-11.408-7.8v-3.932a23.72,23.72,0,0,0,9.772,2.821q.833.054,1.658.054a24.4,24.4,0,0,0,11.387-2.791v3.848Zm8.781,8.108a.134.134,0,0,1-.107.064.13.13,0,0,1-.117-.042l-5.271-5.271,9.939-6.794,2.109,2.215Zm38.468-1.777L114.4,143.5a5.78,5.78,0,0,0,.13-1.251v-.889a14.771,14.771,0,0,0,4.172.737c.162.005.323.007.485.007a15.648,15.648,0,0,0,4.645-.7v.848a5.036,5.036,0,0,0,.152,1.228Zm7.944-13.61a11.322,11.322,0,0,1-8.3,3.215c-6.1-.183-11.056-5.553-11.056-11.969V121.98a2.1,2.1,0,0,0-.222-.942l-1.3-2.6a6.94,6.94,0,0,1-.729-3.087v-.126a9.166,9.166,0,0,1,9.156-9.156h18.166v8.75a9.2,9.2,0,0,1-.967,4.095l-1.063,2.127a2.106,2.106,0,0,0-.222.942v4.5A11.318,11.318,0,0,1,127.127,134.673Z" transform="translate(0 -68.066)" fill="#fffdc0"/>
    </g>
  </g>
  <g id="Сгруппировать_103" data-name="Сгруппировать 103" transform="translate(130.591 87.847)">
    <g id="Сгруппировать_102" data-name="Сгруппировать 102">
      <path id="Контур_598" data-name="Контур 598" d="M467.03,380.814a2.107,2.107,0,0,0-2.107,2.107v13.515a2.107,2.107,0,1,0,4.213,0V382.921A2.107,2.107,0,0,0,467.03,380.814Z" transform="translate(-464.923 -380.814)" fill="#fffdc0"/>
    </g>
  </g>
  <g id="Сгруппировать_105" data-name="Сгруппировать 105" transform="translate(9.01 90.632)">
    <g id="Сгруппировать_104" data-name="Сгруппировать 104">
      <path id="Контур_599" data-name="Контур 599" d="M34.184,390.728a2.107,2.107,0,0,0-2.107,2.107v10.73a2.107,2.107,0,1,0,4.213,0v-10.73A2.107,2.107,0,0,0,34.184,390.728Z" transform="translate(-32.077 -390.728)" fill="#fffdc0"/>
    </g>
  </g>
  <g id="Сгруппировать_107" data-name="Сгруппировать 107" transform="translate(54.06 19.139)">
    <g id="Сгруппировать_106" data-name="Сгруппировать 106">
      <path id="Контур_600" data-name="Контур 600" d="M227.591,142.459c-7.968-7.968-24.638-6.444-31.436-5.42a4.325,4.325,0,0,0-3.7,4.309V146.2a2.107,2.107,0,1,0,4.213,0v-4.853a.139.139,0,0,1,.11-.142,66.554,66.554,0,0,1,13.686-.669c6.569.437,11.328,2.086,14.142,4.9a2.107,2.107,0,0,0,2.979-2.979Z" transform="translate(-192.46 -136.203)" fill="#fffdc0"/>
    </g>
  </g>
  <g id="Сгруппировать_109" data-name="Сгруппировать 109" transform="translate(45.05 92.352)">
    <g id="Сгруппировать_108" data-name="Сгруппировать 108">
      <path id="Контур_601" data-name="Контур 601" d="M162.491,396.853a2.107,2.107,0,0,0-2.107,2.107v9.01a2.107,2.107,0,1,0,4.213,0v-9.01A2.107,2.107,0,0,0,162.491,396.853Z" transform="translate(-160.384 -396.853)" fill="#fffdc0"/>
    </g>
  </g>
  <g id="Сгруппировать_111" data-name="Сгруппировать 111" transform="translate(94.605 92.352)">
    <g id="Сгруппировать_110" data-name="Сгруппировать 110">
      <path id="Контур_602" data-name="Контур 602" d="M338.913,396.853a2.107,2.107,0,0,0-2.107,2.107v9.01a2.107,2.107,0,1,0,4.213,0v-9.01A2.107,2.107,0,0,0,338.913,396.853Z" transform="translate(-336.806 -396.853)" fill="#fffdc0"/>
    </g>
  </g>
</svg>
